<svg xmlns="http://www.w3.org/2000/svg" width="32" height="32" fill="none" viewBox="0 0 32 32"><rect width="32" height="32" fill="url(#gradient)" rx="8"/><path stroke="#fff" stroke-linecap="round" stroke-linejoin="round" stroke-width="1.5" d="M16 8C11.58 8 8 9.79 8 12V20C8 22.21 11.58 24 16 24C20.42 24 24 22.21 24 20V12C24 9.79 20.42 8 16 8Z"/><path stroke="#fff" stroke-linecap="round" stroke-linejoin="round" stroke-width="1.5" d="M8 12C8 14.21 11.58 16 16 16C20.42 16 24 14.21 24 12"/><path stroke="#fff" stroke-linecap="round" stroke-linejoin="round" stroke-width="1.5" d="M8 16C8 18.21 11.58 20 16 20C20.42 20 24 18.21 24 16"/><defs><linearGradient id="gradient" x1="0" x2="32" y1="0" y2="32" gradientUnits="userSpaceOnUse"><stop stop-color="#9333EA"/><stop offset="1" stop-color="#C049FF"/></linearGradient></defs></svg>